# xmcd CD database file
#
# Track frame offsets:
#	150
#	22595
#	37260
#	63287
#	84995
#	102867
#	129305
#	142570
#	167242
#	189090
#	211037
#	243282
#
# Disc length: 3473 seconds
#
# Revision: 0
# Processed by: cddbd v1.5.2PL0 Copyright (c) Steve Scherf et al.
# Submitted via: CDex 1.51
#
DISCID=870d8f0c
DTITLE=Pete Ryder - Last Chance
DYEAR=1996
DGENRE=Jazz
TTITLE0=Cane
TTITLE1=Hey Charlie
TTITLE2=The Day the Circus Came to Town
TTITLE3=Caravan
TTITLE4=GTi 
TTITLE5=Drinking at the Last Chance Saloon
TTITLE6=A sit down song and dance man
TTITLE7=One Last Love Song
TTITLE8=Silver Bullet
TTITLE9=The sky has come between us
TTITLE10=Nat Shapiro's Time
TTITLE11=Beautifully Tired
EXTD=YEAR: 1996
EXTT0=
EXTT1=
EXTT2=
EXTT3=
EXTT4=
EXTT5=
EXTT6=
EXTT7=
EXTT8=
EXTT9=
EXTT10=
EXTT11=
PLAYORDER=
